<svg xmlns="http://www.w3.org/2000/svg" width="1270" height="270" fill="none"><g filter="url(#a)"><g clip-path="url(#b)"><rect width="216" height="200" x="35" y="112" fill="#fff" rx="12"/><path stroke="#000" stroke-linecap="round" stroke-linejoin="round" d="m64.5 138.5-4 4m0 0-4-4m4 4v-12m-7 8.5v4.5a2 2 0 0 0 2 2h10a2 2 0 0 0 2-2V139"/><path fill="#051129" d="m87 133-3.6 10.9-.2.1H81l-.2-.1L77 133l.1-.2H79l.3.2 3 9.5L85 133l.3-.2h1.5zm6 9.8q-.8 1.3-2.7 1.4-2.7 0-2.8-3.2v-5l.1-.2h1.6q.2 0 .2.2v4.9q0 1.8 1.5 1.8 1.7 0 2-2.5V136q0-.2.2-.2h1.6l.2.2-.1 3.7v4.2l-.1.1H93l-.1-.1zm5.3 1.2h-1.6l-.2-.1.1-5.5V133l.1-.2h1.6l.2.2-.1 5.4zm3.6 0h-1.6l-.2-.1.1-3.7V136l.1-.2h1.5q.2 0 .2.2v1q.8-1.3 2.7-1.4 2.7.1 2.8 3.2v5.1l-.2.1h-1.6l-.1-.1v-5q0-1.8-1.5-1.8-1.7 0-2 2.5v4.3zm13.1-2.8h1.5l.2.2c-.3 1.6-1.6 2.8-3.8 2.8q-4-.2-4.1-4.3c0-2.6 1.5-4.3 4-4.3q4 .1 4 4.5l-.1.2h-6q.1 2.6 2.2 2.6 1.5 0 1.9-1.5zm-.2-2.2c0-1-.7-2-2-2q-1.7 0-2 2zm5.1 5h-1.6l-.2-.1v-8l.2-.1h1.6l.2.2v1.3a3 3 0 0 1 3.2-1.5l.1.2v1.1l-.1.2h-.4q-2.5 0-2.8 2.7v3.9zm5.8-4.2q0 3 2 3t2.1-2.8q0-3-2-3t-2 2.8m5.8 4.2H130l-.2-.1v-1a3 3 0 0 1-2.5 1.3c-2.2 0-3.5-1.9-3.5-4.3 0-2.3 1.3-4.3 3.6-4.3q1.6 0 2.5 1.3v-1l.1-.1h1.6l.2.2v7.9zm9.7-4.1c0 2.4-1.3 4.3-3.6 4.3q-1.6 0-2.4-1.2v.9l-.2.1h-1.6l-.2-.1.1-5.7V133l.1-.2h1.6l.2.2v3.9a3 3 0 0 1 2.5-1.3c2.3 0 3.5 1.9 3.5 4.3m-6 0q-.1 2.8 2 3 2-.2 2-3t-2-2.9-2 2.8m9.2-5h-1.6q-.2 0-.2-.2v-1.5q0-.2.2-.2h1.6l.1.2v1.5zm0 9.1h-1.7l-.1-.1v-8l.1-.1h1.7l.2.2-.1 3.9zm3.6 0h-1.6l-.1-.1V133l.1-.2h1.6l.2.2v11zm3.7-9h-1.6l-.2-.3v-1.5l.2-.2h1.6q.2 0 .2.2v1.5q0 .2-.2.2m0 9h-1.6l-.2-.1v-8l.2-.1h1.6q.2 0 .2.2v7.9zm6.4-1.3v1l-.1.3-1.3.2c-1.3 0-2.5-.7-2.5-2.5V137h-.9l-.1-.1v-.9l.1-.2h1l-.1-1.9.2-.2h1.6l.2.2v1.9h1.8l.1.2v1l-.1.2H156v4.4q0 1.2 1 1.1h1m3.1-7.8h-1.6q-.2 0-.2-.2v-1.5l.2-.2h1.6l.2.2v1.5zm0 9.1h-1.6l-.2-.1v-8l.2-.1h1.6q.2 0 .2.2v7.9zm7.8-2.8h1.5l.1.2c-.2 1.6-1.5 2.8-3.7 2.8q-4-.2-4.1-4.3.1-4.1 4-4.3 4 .1 4 4.5l-.1.2h-6q0 2.6 2.2 2.6 1.5 0 1.9-1.5 0-.2.2-.2m-.2-2.2c-.1-1-.7-2-2-2q-1.7 0-2 2zm10.4 2.6c0 1.7-1.5 2.6-3.6 2.6-2.2 0-3.8-1-3.9-2.8l.2-.2h1.5l.2.2q.1 1.5 2 1.5 1.7 0 1.8-1.2c0-1.8-5.5-.2-5.5-3.5q.2-2.6 3.5-2.6t3.5 2.5l-.1.2h-1.5l-.2-.2q-.1-1.2-1.8-1.2-1.5 0-1.5 1.1c0 1.8 5.4.1 5.4 3.6"/><rect width="185" height="51" x="50.5" y="189.5" stroke="#051129" stroke-opacity=".1" rx="9.5"/><path fill="#051129" d="M70 213.8q-.2 6.3-4.7 6.5c-2.9 0-4.8-2.4-4.8-6.6 0-4.3 1.9-6.5 4.8-6.5s4.8 2.2 4.8 6.6m-7.2 0q.1 4.8 2.5 4.7t2.5-4.7q-.1-4.9-2.5-4.8-2.5 0-2.5 4.8m15.6-4.4Q76 214 75 219.8q0 .2-.2.2h-2v-.2c.5-3.8 1.7-7.7 3.4-10.6h-5.3l-.2-.2v-1.4l.2-.2h7.5l.2.2v1.8m18.6 6.8q-.2 3-3.8 3-3.8 0-4-3.4l.1-.2h1.1l.2.2q0 2.2 2.7 2.3 2.3 0 2.5-1.8c0-2.7-6.4-.7-6.4-4.4q.2-2.7 3.6-2.8T97 212l-.1.1h-1l-.2-.1q-.2-2-2.6-1.9-2 0-2.2 1.6c0 2.6 6.3.6 6.3 4.5m10.6 1.9v.8l-.2.1h-3.3l-1.4.2c-2.8 0-4.6-2-4.6-5 0-3.2 1.8-5.2 4.6-5.2 2.9 0 4.7 2 4.7 5.1q0 2.5-1.4 3.9zm-8.2-4q.1 3.9 3.3 4 3.3-.1 3.4-4-.1-3.9-3.4-4-3.1.1-3.3 4m15.2 5h-5.6l-.1-.2v-9.5l.1-.2h1.1l.1.2v8.6h4.4zm5 0h-1l-.1-.2V209h1.1q.2 0 .2.2v9.5zm3 0h-1l-.1-.2V212l.1-.2h1l.1.2v1q.8-1.2 2.4-1.4 2.3 0 2.4 2.9v4.5h-1.1l-.1-.1v-4.3q0-2-1.5-2t-2 2.3v4zm7.7-8.1h-1l-.2-.2v-1.1l.2-.1h1l.1.1v1.1zm0 10.4h-1l-.2-.1V212l.1-.2h1q.3 0 .2.2zm7-4.9h1v.2q-.3 2.3-3 2.5c-2.3 0-3.5-1.6-3.5-3.8s1.3-3.8 3.3-3.8q3.3.2 3.4 3.9h-5.4q0 2.8 2.1 2.8 1.6 0 2-1.6zm-.2-1.8q0-2-2-2.1-1.7 0-2 2.1zm9 1.7a3 3 0 0 1-3.2 2.8q-3.4-.2-3.4-3.8c0-2.2 1.2-3.8 3.4-3.8q2.8.1 3 2.6v.1h-1l-.1-.1q-.4-1.5-1.9-1.6-2 0-2 2.8t2 2.9q1.6 0 2-1.9zm4.6 1.8v.6l-.1.2-1 .1c-1 0-2-.5-2-2v-4.3h-.7l-.1-.1v-.9h.9v-1.7h1.3v1.7h1.6l.1.2v.7l-.1.1H149v4.2q0 1.2 1 1.1h.8m2.4-7.2h-1l-.2-.2v-1.1l.2-.1h1l.2.1v1.1zm0 8h-1l-.2-.1V212l.2-.2h1l.2.2v6.9zm8.3-3.6q0 3.6-3.4 3.8-3.3-.2-3.4-3.8c0-2.2 1.2-3.8 3.4-3.8q3.3.2 3.4 3.8m-5.5 0q0 2.8 2.1 2.9 2.1 0 2.1-2.9 0-2.8-2-2.8-2.2 0-2.2 2.8m8 3.6h-1l-.2-.1V212l.2-.2h1v1.2q.7-1.2 2.5-1.4 2.3 0 2.4 2.9v4.4l-.1.1h-1l-.2-.1v-4.3q0-2-1.5-2t-2 2.3v4.1m12.4-2c0 1.4-1.4 2.2-3 2.2q-3 0-3.3-2.5 0-.2.2-.2h1v.2q.2 1.5 2 1.6 1.7 0 1.8-1.3c0-1.8-4.8-.3-4.8-3.2q.1-2.1 2.8-2.1c1.7 0 3 .7 3 2.1l-.1.2h-1v-.2q-.3-1.3-1.9-1.3t-1.6 1.2c0 1.8 4.9.2 4.9 3.3"/><rect width="187" height="51" x="49.5" y="247.5" stroke="#051129" stroke-opacity=".1" rx="9.5"/><path fill="#051129" d="M69 271.8q-.2 6.3-4.7 6.5c-2.9 0-4.8-2.4-4.8-6.5 0-4.3 1.9-6.6 4.8-6.6s4.8 2.2 4.8 6.6m-7.2 0q.1 4.8 2.5 4.7t2.5-4.7q-.1-4.9-2.5-4.8-2.5 0-2.5 4.8m17.8 1.6v1.3q0 .3-.2.2h-1.1v3l-.2.1h-1.8q-.2 0-.2-.2V275h-5.6l-.2-.2v-1.5l.1-.4 4.8-7.2.3-.2H78l.2.2v7.6h1.1zm-3.5-.2v-6.1l-4 6.1zm21.4-3q-.2 3-3.5 3.1h-2v3.6l-.1.1h-1.1l-.2-.1.1-4.9v-4.8h3.3q3.3 0 3.5 3m-5.5-2v4.1h2q2 0 2.2-2 0-2-2.2-2zm7.8 8.8h-1l-.2-.1V270l.2-.2h1l.1.2v1.2a3 3 0 0 1 2.8-1.4l.2.2v.7l-.2.1h-.4q-2 0-2.4 2.3zm5.3-8h-1l-.1-.2v-1l.1-.2h1l.2.1v1.1q0 .2-.2.2m0 8h-1l-.1-.1V270l.1-.2h1l.2.2v6.9zm8-7-2.6 7H109l-2.6-7v-.2h1.2l.2.2 2 6 2.1-6q0-.2.2-.2h1zm1.6 3.4q0 2.7 2 2.8 1.9 0 2-2.7 0-2.6-1.8-2.9h-.4q-1.8.3-1.8 2.8m5 3.6h-1v-1q-.7 1.3-2.4 1.3c-2 0-3-1.7-3-3.7 0-2.1 1.2-3.8 3-3.8q1.6 0 2.3 1.2v-1h1.3v7zm5.3-.8v.6l-.1.2-1 .2q-1.7 0-1.9-2.1v-4.3h-.8l-.1-.1v-.7l.1-.2h.8v-1.6l.1-.2h1q.2 0 .2.2v1.6h1.6l.1.2v.7l-.1.1h-1.6v4.2q0 1.3.9 1.2l.7-.1zm6.2-1.7h.9l.1.2q-.3 2.3-3.1 2.5-3.5-.2-3.5-3.7.1-3.6 3.4-3.8 3.2.1 3.3 3.8l-.1.1H127q0 2.6 2.2 2.7 1.5 0 1.9-1.6 0-.2.2-.2m-.2-1.8c0-1.1-.7-2.1-2-2.1q-1.8 0-2 2.1zm6.7 4.3h-1l-.2-.1v-9.5l.1-.2h1l.2.2zm8.7-6.8q-.2 3-3.5 3.1h-2v3.6l-.1.1h-1l-.2-.1v-9.5l.1-.2h3.2q3.4 0 3.5 3m-5.5-2v4.1h2.1q2 0 2.1-2 0-2-2.1-2zm12.7 8.8h-3.1l-.2-.1v-9.5l.2-.2h3c2.9 0 5 1.7 5 5s-2.3 4.8-5 4.8m-2-5v4h2.1c1.7 0 3.5-1.1 3.5-3.9 0-2.6-1.6-3.8-3.5-3.8h-2zm9.5-3h-1l-.2-.2v-1l.1-.2h1l.2.1v1.1zm0 8h-1l-.2-.1V270l.1-.2h1l.2.2v6.9zm7.7-2c0 1.4-1.3 2.2-3 2.2q-3 0-3.3-2.5l.2-.2h1v.2q.2 1.6 2 1.6t1.9-1.2c0-2-4.9-.4-4.9-3.3q.1-2.1 2.9-2.1c1.6 0 2.9.7 3 2.2l-.2.1h-.9l-.2-.1q0-1.4-1.8-1.4-1.5 0-1.6 1.2c0 1.8 4.9.2 4.9 3.3m7.5-.5q-.3 2.5-3.1 2.7-3.4-.2-3.4-3.7 0-3.6 3.4-3.8 2.8.1 3 2.5l-.1.1h-.9l-.2-.1q-.4-1.6-1.8-1.6-2.1 0-2.1 2.8 0 2.9 2 2.9 1.7 0 2-1.8l.2-.2h.9zm2.4 2.5h-1l-.1-.1v-9.5l.1-.2h1l.2.2v9.5zm8.4-3.6q0 3.6-3.4 3.8-3.4-.2-3.5-3.7.1-3.6 3.5-3.8 3.3.2 3.4 3.7m-5.6 0q0 2.9 2.2 2.9 2 0 2-2.8 0-2.9-2-2.9-2.2 0-2.2 2.9m12.8 1.6c0 1.4-1.4 2.2-3 2.2q-3 0-3.3-2.5l.1-.2h1l.1.2q.1 1.6 2 1.6 1.7 0 1.8-1.2c0-2-4.8-.4-4.8-3.3q.1-2.1 2.8-2.1c1.7 0 3 .7 3 2.2l-.1.1h-1v-.1q-.4-1.4-1.9-1.4-1.6 0-1.6 1.2c0 1.8 4.9.2 4.9 3.3m6 .8q-.8 1.2-2.4 1.4-2.3 0-2.4-2.9V270h1.2v4.4q0 2 1.5 1.9 1.5 0 2-2.2v-4q0-.2.2-.2h1l.1.2v6.9l-.1.1h-1l-.1-.1zm4 1.2h-1.1l-.1-.1v-7l.1-.2h1l.1.2v1.2a3 3 0 0 1 2.8-1.4q.2 0 .2.2v.7l-.2.1h-.4q-2 0-2.4 2.3zm8.8-2.5h.9l.1.2q-.3 2.3-3.1 2.5-3.5-.2-3.5-3.7.1-3.6 3.4-3.8 3.1.1 3.4 3.8l-.2.1H209q0 2.6 2.2 2.7 1.5 0 1.9-1.6 0-.2.2-.2m-.2-1.8c0-1.1-.7-2.1-2-2.1q-1.8 0-2 2.1z"/></g></g><g filter="url(#c)"><g clip-path="url(#d)"><rect width="216" height="275" x="281" y="62" fill="#fff" rx="12"/><path stroke="#000" stroke-linecap="round" stroke-linejoin="round" d="M299.5 80.5v12a2 2 0 0 0 2 2H313m-10.5-6v3m4-6v6m4-9v9"/><path fill="#051129" d="M331.2 94H324l-.2-.1.1-5.5V83l.1-.2h7.1l.2.2v1.2l-.2.2h-5.2l-.1 3h4.9l.2.1v1.2l-.2.2h-5l.2 3.6h5.3q.2 0 .2.2v1.2zm8.6 0H338l-.3-.1-1.7-3-1.8 3-.2.1h-1.7l2.5-4.2-2.4-3.8.1-.1h1.8l.3.2 1.6 2.7 1.5-2.7.3-.2h1.6v.1l-2.2 3.9 2.5 4zm2.9-4.2q0 3 2 3 2.1 0 2.1-2.8 0-3-2-3t-2.1 2.8m6 0c0 2.5-1.3 4.4-3.5 4.4q-1.6 0-2.4-1.2v3.6l-.2.2H341l-.2-.2V86q0-.2.2-.2h1.6q.2 0 .2.2v1a3 3 0 0 1 2.5-1.4c2.3 0 3.4 1.9 3.4 4.3m9.3 0q-.1 4.2-4 4.4-4.1-.1-4.2-4.3c0-2.6 1.5-4.3 4.1-4.3q4 .2 4 4.3m-6.2.2q0 2.9 2.1 2.9 2 0 2-3t-2-3-2.1 3m14.6 1.6c0 1.7-1.6 2.6-3.6 2.6q-3.6 0-4-2.8l.3-.2h1.5l.2.2q0 1.5 2 1.6 1.6 0 1.7-1.2c0-1.9-5.4-.3-5.4-3.6q.1-2.6 3.4-2.6 3.1 0 3.6 2.5 0 .2-.2.2h-1.4q-.2 0-.2-.2-.3-1.2-1.8-1.2t-1.6 1.1c0 1.8 5.5.1 5.5 3.6m6.8 1.2q-.8 1.3-2.7 1.4-2.7 0-2.8-3.2v-5l.1-.2h1.6q.2 0 .2.2v5q0 1.7 1.5 1.7 1.6 0 2-2.5V86l.1-.2h1.7l.1.2v7.9l-.2.1h-1.5l-.2-.1zm5.2 1.2h-1.6l-.2-.1v-8l.2-.1h1.6l.1.2v1.3a3 3 0 0 1 3.2-1.5q.2 0 .2.2v.9q0 .2-.2.2h-.3c-1.5 0-2.8.9-2.9 2.7V94zm10-2.8h1.5l.2.2c-.3 1.6-1.6 2.8-3.8 2.8-2.7 0-4-1.7-4-4.3s1.4-4.3 4-4.3q3.9.2 4 4.5l-.2.2h-6q.1 2.6 2.2 2.6 1.5 0 2-1.5zm-.2-2.2c0-1-.7-2-2-2q-1.7 0-2 2zm17 5h-2l-.2-.1-2-8.3-1.8 8.3-.2.1h-2l-.3-.1-2.6-11 .2-.2h1.6l.2.2 2 9.2 2-9.2.2-.2h2l.1.2 2 9.3 2-9.3.2-.2h1.6v.2l-2.5 11zm6-9h-1.6l-.2-.3v-1.5q0-.2.2-.2h1.6l.1.2v1.5zm0 9h-1.7l-.1-.1v-8l.1-.1h1.7l.1.2V94zm3.6 0h-1.6l-.2-.1v-8l.2-.2h1.5q.2 0 .2.2v1q.7-1.3 2.7-1.4 2.7.1 2.8 3.2V94l-.2.1h-1.6l-.2-.1v-5q0-1.8-1.4-1.8-1.7 0-2 2.5V94zm8.8-4.2q0 3 2 3 2.1 0 2.1-2.8 0-3-2-3t-2 2.8m5.8 4.2h-1.6l-.2-.1v-1a3 3 0 0 1-2.5 1.3c-2.2 0-3.4-1.9-3.4-4.3 0-2.3 1.3-4.3 3.5-4.3q1.6 0 2.5 1.2V83l.1-.2h1.6l.2.2v11zM439 90c0 2.6-1.4 4.3-4 4.3q-4-.1-4-4.3c0-2.6 1.4-4.3 4-4.3q4 .2 4 4.3m-6.1 0q0 3 2.1 3 2 0 2-3t-2-3-2.1 3m15.8 4.1h-1.9l-.2-.1-1.5-6.5-1.4 6.5-.2.1h-1.9l-.2-.1-2-8 .2-.1h1.6q.2 0 .2.2l1.3 6.5L444 86l.2-.2h2l.2.2 1.4 6.4L449 86l.2-.2h1.5v.2l-1.7 7.9z"/><path fill="#E393FF" d="M391 148.5h30v175h-30z"/><path fill="#FF6161" d="M407 167.5h53v156h-53z"/><path fill="#FFAF64" d="M337 199.5h84v125h-84z"/><path fill="#F4E349" d="M296 238.5h187v86H296z"/></g></g><g filter="url(#e)"><g clip-path="url(#f)"><rect width="216" height="325" x="527" y="12" fill="#fff" rx="12"/><path stroke="#000" stroke-linecap="round" stroke-linejoin="round" d="M552.5 38.5v-5m0-5 9 16h-18z"/><path fill="#000" d="M552.5 42.5a1 1 0 1 0 0-2 1 1 0 0 0 0 2"/><path fill="#051129" d="M579.8 40q-.8 4.4-5 4.3c-3.3 0-5.3-2.3-5.3-5.8 0-3.6 2-5.9 5.4-5.9 2.3 0 4.2 1 4.8 4l-.1.1H578q-.2 0-.2-.2-.6-2.3-3-2.3-3.2.1-3.3 4.3 0 4.1 3.3 4.2 2.6-.1 3-2.6l.2-.2h1.6q.2 0 .2.2m6.8 2.8q-.9 1.3-2.7 1.4-2.7 0-2.8-3.2v-5.2h1.7l.2.2v5q.1 1.7 1.4 1.7c1 0 2-.8 2-2.5V36l.2-.2h1.6q.2 0 .2.2v7.9l-.2.1h-1.5l-.2-.1zm5.2 1.2h-1.6l-.2-.1v-8l.2-.1h1.5q.2 0 .2.2v1.3a3 3 0 0 1 3.2-1.5q.2 0 .2.2v.9q0 .2-.2.2h-.3q-2.6 0-2.9 2.7V44zm6.3 0h-1.6l-.1-.1v-8l.1-.1h1.6q.2 0 .2.2v1.3a3 3 0 0 1 3.2-1.5q.2 0 .2.2v.9l-.2.2h-.3q-2.6 0-2.9 2.7V44zm10-2.8h1.6l.1.2q-.4 2.6-3.7 2.8-4-.2-4.1-4.3.1-4.1 4-4.3 4 .2 4 4.5l-.1.2h-6q0 2.6 2.2 2.6 1.6 0 1.9-1.5 0-.2.2-.2M608 39c-.1-1-.7-2-2-2q-1.7 0-2 2zm5.1 5h-1.6l-.2-.1.1-3.7V36l.1-.2h1.6l.1.2v1q.8-1.3 2.7-1.4 2.7.1 2.8 3.2V44l-.1.1H617l-.2-.1v-5q0-1.8-1.5-1.8-1.7 0-2 2.5V44zm11.6-1.3v1l-.2.3-1.3.2c-1.3 0-2.5-.7-2.5-2.5v-4.5h-.8l-.2-.1V36q0-.2.2-.2h.9v-1.9l.1-.2h1.6l.2.2v1.9h1.8q.2 0 .2.2v1q0 .3-.2.2h-1.8v4.4q0 1.2 1 1.1zm11.3-6.4q0-2-2.2-2h-2.5v3.9h2.5q2 0 2.2-2m-.1 7.6-1.3-2.1-1.3-2.1h-2v4.2l-.2.1h-1.7l-.1-.1V33l.1-.2h4.3q4 0 4.2 3.5-.1 2.6-2.6 3.2l2.9 4.4-.1.1h-2zm5.3-9h-1.6l-.1-.2v-1.5l.1-.2h1.6q.2 0 .2.2v1.5q0 .2-.2.2m0 9.1h-1.6l-.2-.1.1-4v-4l.1-.1h1.6q.2 0 .2.2v7.9zm9-2.4c0 1.7-1.5 2.6-3.5 2.6q-3.6 0-4-2.8l.3-.2h1.5l.2.2q0 1.6 2 1.6 1.6 0 1.8-1.2c0-1.9-5.5-.3-5.5-3.6q.1-2.6 3.4-2.6 3.1 0 3.6 2.5 0 .2-.2.2h-1.4q-.2 0-.2-.2-.2-1.2-1.8-1.2t-1.6 1.1c0 1.8 5.5.1 5.5 3.6m6.3 2.3-.7-1.4-1.4-2.3-.9 1V44l-.1.1h-1.6l-.2-.1V33l.2-.2h1.6l.1.2v6.1l2.7-3.2.3-.1h1.8v.1l-2.5 2.9 3 5-.1.2h-2zm10-2.3c0 1.7-1.5 2.6-3.6 2.6-2.2 0-3.8-1-3.9-2.8l.2-.2h1.5l.2.2q.1 1.6 2 1.6 1.7 0 1.8-1.2c0-1.9-5.5-.3-5.5-3.6q.2-2.6 3.5-2.6t3.5 2.5l-.1.2h-1.5l-.2-.2q-.2-1.2-1.8-1.2-1.5 0-1.5 1.1c0 1.8 5.4.1 5.4 3.6"/><rect width="190" height="56" x="540" y="81.1" fill="#E393FF" rx="6"/><path fill="#051129" d="M564.7 116.2q-.9 4.3-4.9 4.1c-3.3 0-5.4-2.3-5.4-5.8s2.1-5.8 5.4-5.8c2.3 0 4.3 1 4.9 4h-2q-.5-2.4-3-2.4-3.1.1-3.2 4.2 0 4.3 3.3 4.3 2.6-.1 3-2.6l.2-.2h1.6zm3 4h-1.5l-.2-.3V112l.2-.1h1.6l.1.1v1.3a3 3 0 0 1 3.2-1.5l.2.3v1.1q0 .2-.2.2h-.3c-1.5 0-2.8.8-2.9 2.7v3.8zm6.6-9.2h-1.6q-.2 0-.2-.2v-1.5q0-.2.2-.2h1.6l.1.2v1.5zm0 9.1h-1.7l-.1-.2V112l.1-.1h1.7l.2.1-.1 4v4zm6.4-1.3v1l-.2.2q-.6.3-1.3.3c-1.3 0-2.4-.7-2.4-2.5v-4.5h-1l-.1-.2v-1q0-.2.2-.2h.9v-2h1.9v2h1.8l.2.1v1.1q0 .2-.2.2h-1.8v4.4q0 1.2 1 1.1l.8-.1zm3-7.8h-1.6l-.1-.2v-1.5l.1-.2h1.6q.2 0 .2.2v1.5q0 .2-.2.2m0 9.1h-1.6l-.2-.2.1-4V112l.1-.1h1.7l.1.1v8zm9.4-3q-.4 3-3.7 3.2c-2.6 0-4-1.7-4-4.3s1.4-4.3 4-4.3q3.1.1 3.6 2.9l-.2.2h-1.4q-.2 0-.2-.2-.5-1.5-1.8-1.5-2.1 0-2.1 2.9 0 3 2 3 1.6 0 2-1.8l.1-.2h1.5q.2 0 .2.2m3-1.2q0 3 2 3t2-2.9-2-3q-2 .1-2 2.9m5.7 4.2h-1.6l-.1-.2v-1a3 3 0 0 1-2.5 1.4c-2.3 0-3.5-1.9-3.5-4.3s1.3-4.3 3.5-4.3q1.6 0 2.5 1.2v-.9l.1-.1h1.6l.2.1v8zm3.6 0h-1.6l-.1-.2v-10.8l.1-.2h1.6q.2 0 .2.2V120q0 .2-.2.2m88.4-.1H690l-.3-.3V100a13 13 0 0 1-5 2.9q-.3 0-.3-.2v-3q0-.3.3-.4 3.3-1.4 5.2-4.1 0-.3.4-.3h3.6q.3 0 .3.3v24.6q0 .3-.3.3m21.8-9.3v2.8q0 .3-.2.3H713v6q0 .2-.3.3h-3.8l-.3-.3v-6h-11.2l-.3-.3v-3.3l.2-.5 9.6-14.6q.1-.3.5-.3h5.3q.3 0 .3.3v15.3h2.5q.2 0 .2.3m-7-.3V98.3l-7.9 12.2z"/><rect width="190" height="56" x="540" y="143.1" fill="#FF6161" rx="6"/><path fill="#051129" d="M564 182.1h-1.7l-.2-.1v-5h-5.4l.1 5-.2.1H555l-.1-.1v-11l.1-.2h1.7l.2.2v4.3h5.4v-4.5h1.8l.1.2v11zm3.7-9H566l-.2-.3v-1.5q0-.2.2-.2h1.6l.1.2v1.5zm0 9H566l-.2-.1v-8l.2-.1h1.6l.2.2-.1 3.9zm3.5-4.2q0 2.9 2 2.9 2.1 0 2.1-2.8t-2-2.9-2 2.8m6 3.9q0 3.4-4 3.5-3.2 0-3.7-2.6l.2-.2h1.5q.3 0 .2.2.3 1.3 2 1.3 1.8 0 2-2.3v-.9q-.9 1.3-2.5 1.3c-2.4 0-3.6-1.8-3.6-4.1 0-2.4 1.3-4.2 3.5-4.2q1.6 0 2.5 1.2v-1l.1-.1h1.6l.2.2zm7-4.8q-.1-1.9-1.5-1.8-1.6 0-2 2.1v4.7l-.2.1H579l-.2-.1.1-5.5V171l.1-.2h1.6l.2.2v3.9a3 3 0 0 1 2.5-1.3q2.9-.1 2.9 3.5v4.7q0 .2-.2.2h-1.6l-.2-.1zm111.4-7.3c0 8.4-3.7 13-9.5 13s-9.5-4.7-9.5-13c0-8.6 3.7-13.2 9.5-13.2s9.5 4.5 9.5 13.2m-14.5 0q.2 9.5 5 9.4 4.9.1 5-9.4-.1-9.7-5-9.6-4.9-.1-5 9.6m34.3 5c0 5-4 7.9-9.2 7.9q-8-.1-8.6-8l.2-.3h3.7q.3 0 .3.3c.1 3 1.6 4.9 4.5 4.8q4.3-.2 4.6-4.7 0-4.4-5.6-4.4h-1l-.3-.2v-2.5q0-.2.3-.3h1q5.1-.2 5-3.7c0-2.3-1.6-3.8-3.8-3.8q-4 0-4.4 4.4 0 .2-.3.3h-3.6l-.2-.3c.2-4.9 3.5-7.5 8.7-7.5 4.7 0 8 2.5 8 6.4 0 3.1-1.8 4.7-4.2 5.5q4.7 1.2 4.9 6"/><rect width="190" height="56" x="540" y="205.1" fill="#FFAF64" rx="6"/><path fill="#051129" d="M556.5 236.6v7.3l-.1.2h-1.5l-.1-.1v-11l.1-.2h2.3l.3.2 3.2 8.6 3.2-8.6.2-.2h2.2l.1.2v11l-.1.1h-1.7l-.2-.1v-4l.1-3.4v-1l-3 8.4-.3.1H560l-.2-.1-3.3-8.6zm17.6 4.7h1.5l.1.2c-.2 1.6-1.6 2.8-3.7 2.8q-4-.2-4.1-4.3.1-4.1 4-4.3 3.9.2 4 4.5 0 .2-.2.2h-6q.3 2.6 2.3 2.6 1.5 0 1.9-1.5 0-.2.2-.2m-.3-2.2c0-1-.6-2-2-2q-1.5 0-2 2zm5.1.8q0 3 2 3 2.1 0 2.1-2.8 0-3-2-3t-2 2.8m5.8 4.2h-1.6l-.2-.1v-1a3 3 0 0 1-2.5 1.3c-2.2 0-3.4-1.9-3.4-4.3 0-2.3 1.3-4.3 3.5-4.3q1.5 0 2.5 1.2v-3.8l.1-.2h1.6l.2.2V244zm3.6-9h-1.6l-.2-.3v-1.5l.2-.2h1.6l.2.2v1.5q0 .2-.2.2m0 9h-1.6l-.2-.1.1-4v-4h1.9v8zm7.4-1.2q-.9 1.3-2.8 1.4-2.7 0-2.8-3.2v-5q0-.2.2-.2h1.6l.2.2-.1 3.3v1.7q0 1.7 1.5 1.7 1.7 0 2-2.5V236l.2-.2h1.6q.2 0 .2.2v7.9l-.2.1h-1.5l-.2-.1zm5.3-3.2v4.4h-1.7l-.2-.1v-8h1.9v1.1q.7-1.3 2.4-1.4 1.8 0 2.4 1.6 1-1.6 2.5-1.6 2.6 0 2.6 3.2v5.1l-.1.1h-1.6l-.2-.1v-5q0-1.9-1.3-1.8-1.2 0-1.7 2.2v4.6l-.1.1h-1.7l-.1-.1v-5q0-1.9-1.3-1.8t-1.8 2.5m93.7-8c0 8.4-3.8 13-9.6 13s-9.5-4.7-9.5-13c0-8.6 3.7-13.2 9.5-13.2s9.6 4.5 9.6 13.2m-14.6 0q.2 9.6 5 9.4 4.9.2 5-9.4-.1-9.7-5-9.6-4.9-.1-5 9.6m35.2 5.5c0 4.7-4 7.5-9.3 7.5-5.2 0-9.2-2.8-9.2-7.5q0-4.6 4.8-6.3-4-1.7-4-5.6c0-4.3 3.1-6.8 8.4-6.8s8.4 2.5 8.5 6.8q0 3.8-4.2 5.6 4.9 1.7 5 6.3m-13.5-11.5c0 2.3 1.6 4 4.2 4s4.1-1.8 4.1-4q-.2-3.9-4.1-4c-2.5 0-4.2 1.5-4.2 4m-.7 11.3c0 2.6 2 4.6 4.9 4.6s4.9-2 4.9-4.6c0-2.7-1.9-4.5-5-4.5-3 0-4.8 1.8-4.8 4.5"/><rect width="190" height="56" x="540" y="267.2" fill="#F4E349" rx="6"/></g></g><g filter="url(#g)"><g clip-path="url(#h)"><rect width="216" height="275" x="773" y="62" fill="#fff" rx="12"/><path stroke="#000" stroke-linecap="round" stroke-linejoin="round" d="M794.5 86.5v-2q0-6 4-6t4 6v2m-8 0h8a2 2 0 0 1 2 1.9v6.1a2 2 0 0 1-2 2h-8a2 2 0 0 1-2-2v-6a2 2 0 0 1 2-2"/><path fill="#000" d="M798.5 93a1.5 1.5 0 1 0 0-3 1.5 1.5 0 0 0 0 3"/><path fill="#051129" d="M824.8 90.7c0 2.3-1.8 3.6-4.5 3.6q-4.6 0-4.9-3.9l.2-.2h1.7l.2.2q0 2.2 2.8 2.3 2.5 0 2.5-1.7c0-2.8-7.2-.7-7.2-5q.2-3.3 4.3-3.4t4.6 3.4l-.2.2h-1.7l-.2-.2q-.1-1.8-2.5-1.8-2.2 0-2.3 1.6c0 2.5 7.2.5 7.2 4.9m7.2.5h1.5l.2.2c-.2 1.6-1.6 2.8-3.8 2.8-2.7 0-4-1.7-4-4.3s1.4-4.3 4-4.3q3.9.2 4 4.5l-.2.2h-6q.2 2.6 2.2 2.6 1.5 0 2-1.5zm-.2-2.2c0-1-.7-2-2-2q-1.7 0-2 2zm10.9 2q-.4 3-3.7 3.2-4-.1-4-4.3c0-2.6 1.4-4.3 4-4.3q3.1.2 3.6 3h-1.8q-.5-1.6-1.8-1.6-2.1 0-2.1 3t2 2.9q1.6 0 2-1.8l.1-.2h1.5q.2 0 .2.2m6.7 1.8q-.8 1.3-2.7 1.4-2.7 0-2.8-3.2v-5l.1-.2h1.6q.2 0 .2.2v5q0 1.7 1.5 1.7 1.7 0 2-2.5V86q0-.2.2-.2h1.6l.2.2-.1 3.7v4.2l-.1.1h-1.6l-.1-.1zm5.2 1.2H853l-.2-.1.1-4v-4l.1-.1h1.6q.2 0 .2.2v1.3a3 3 0 0 1 3.2-1.5l.2.2v.9l-.2.2h-.4q-2.5 0-2.8 2.7V94zm6.5-9h-1.6l-.2-.3v-1.5l.2-.2h1.6l.2.2v1.5zm0 9h-1.6l-.2-.1v-8l.2-.1h1.6q.2 0 .2.2V94zm6.4-1.3v1l-.2.3-1.2.2c-1.3 0-2.5-.7-2.5-2.5v-4.5h-.9l-.2-.1V86l.2-.2h.9v-1.9l.1-.2h1.7l.1.2v1.9h1.8q.2 0 .2.2v1q0 .2-.2.2h-1.8v4.4q0 1.2 1 1.1zm8.7-6.7-3.7 10.6-.2.2h-1.5q-.2 0-.1-.2l.8-2.5-3.2-8.1v-.2h1.9q.2 0 .2.2l2 5.6 1.8-5.6.2-.2h1.7v.2m14.6 2.5c0 3.4-2.1 5.8-5.5 5.8-3.3 0-5.5-2.4-5.5-5.8 0-3.6 2.2-5.9 5.5-5.9s5.5 2.3 5.5 5.9m-9 0q.2 4 3.6 4.2 3.3-.1 3.4-4.2 0-4.2-3.5-4.3-3.3.1-3.4 4.3m17.8-2.5-2.8 8h-2.5l-2.8-8 .1-.2h1.8l.2.2 2 6.5 2.2-6.5.2-.2h1.5q.2 0 .1.2m6.4 5.2h1.5l.2.2c-.2 1.6-1.6 2.8-3.8 2.8-2.6 0-4-1.7-4-4.3s1.4-4.3 4-4.3q3.9.2 4 4.5 0 .2-.2.2h-6q.2 2.6 2.2 2.6 1.5 0 2-1.5zm-.2-2.2c0-1-.7-2-2-2q-1.6 0-2 2zm5.1 5h-1.6l-.1-.1v-8l.1-.1h1.6q.2 0 .2.2v1.3a3 3 0 0 1 3.2-1.5q.2 0 .2.2v1l-.2.2h-.3q-2.6 0-2.9 2.7v4zm12 0h-1.7l-.2-.1.1-5.4v-4.1H918l-.2-.2V83l.2-.2h8.1l.2.2v1.2l-.2.2h-3l-.1 4V94m6.3-9h-1.7l-.1-.3v-1.5l.1-.2h1.6q.2 0 .2.2v1.5zm0 9h-1.7l-.1-.1v-8l.1-.1h1.7l.1.2v7.9zm3.7-4.4V94h-2l-.1-.1v-8l.2-.1h1.5q.2 0 .2.2v1q.8-1.3 2.4-1.4 1.8 0 2.4 1.6.9-1.6 2.5-1.6 2.6 0 2.6 3.2V94l-.1.1H941l-.2-.1v-5q0-1.9-1.3-1.8-1.2 0-1.7 2.2V94l-.1.1H936l-.2-.1.1-3v-2q0-1.9-1.3-1.8t-1.8 2.5m17.4 1.6h1.5l.2.2c-.3 1.6-1.6 2.8-3.8 2.8-2.7 0-4-1.7-4-4.3s1.4-4.3 4-4.3q3.9.2 4 4.5l-.2.2h-6q.1 2.6 2.2 2.6 1.5 0 2-1.5zm-.2-2.2c0-1-.7-2-2-2q-1.7 0-2 2z"/><path fill="#F4E349" d="M788 207h46v117h-46z"/><path fill="#FFAF64" d="M834 166h46v158h-46z"/><path fill="#FF6161" d="M880 148h48v176h-48z"/><path fill="#E393FF" d="M928 235h46v89h-46z"/><path fill="#051129" d="M889.2 169h-1.9l-.2-.2.1-5.8v-4q-1 .8-2.6 1.4l-.1-.2v-1.4l.1-.2a5 5 0 0 0 2.6-2q0-.2.3-.2h1.7q.2 0 .2.2v12.2q0 .2-.2.2m11.5-4.6v1.3l-.2.2h-1.2v2.9q0 .2-.2.2h-1.8l-.2-.2v-2.9h-5.5q-.2 0-.2-.2v-1.9l4.8-7.2.3-.2h2.6q.2 0 .2.2v7.6h1.2q.2 0 .2.2m-3.6-.2V158l-3.9 6zM843.2 187h-1.9l-.2-.2.1-5.8v-4q-1 .8-2.6 1.4l-.1-.2v-1.4l.1-.2a5 5 0 0 0 2.6-2q0-.2.3-.2h1.7q.2 0 .2.2v12.2q0 .2-.2.2m10.5 0h-8q-.2 0-.2-.2v-1.5c0-5 6.4-4.4 6.4-7.3q0-2.1-2.1-2.1t-2.3 2.6l-.2.2h-1.6l-.2-.2q0-4.3 4.3-4.3 4 .1 4.1 3.7c0 4.6-6.3 4.2-6.3 7v.4h6q.3 0 .3.2v1.3zM802 221.7q-.2 6.4-4.7 6.6c-2.9 0-4.8-2.4-4.8-6.6 0-4.3 1.9-6.6 4.8-6.6s4.8 2.3 4.8 6.6m-7.2 0q.1 4.9 2.5 4.8 2.5 0 2.5-4.8-.1-4.8-2.5-4.8t-2.5 4.8m11-2.2q0 2.5 2 2.7 2.3-.1 2.4-2.6 0-2.7-2.2-2.8t-2.3 2.7m6.8 2.1c0 4.3-2 6.7-5 6.7q-3.2-.1-3.7-3.2l.2-.2h1.7l.3.2q.2 1.5 1.8 1.5 2.3-.1 2.4-4-.9 1.2-2.9 1.2-3.8-.1-4-4c0-2.6 1.9-4.7 4.5-4.7q4.6 0 4.7 6.5M942 249.7q-.2 6.5-4.7 6.6c-2.9 0-4.8-2.4-4.8-6.6 0-4.3 1.9-6.6 4.8-6.6s4.8 2.3 4.8 6.6m-7.2 0q.1 4.9 2.5 4.8 2.5 0 2.5-4.8-.1-4.8-2.5-4.8t-2.5 4.8m15.6-4.4q-2.4 4.7-3.5 10.5 0 .2-.2.2h-2v-.2c.5-3.8 1.7-7.7 3.4-10.7h-5.3q-.2 0-.2-.2v-1.3q0-.2.2-.2h7.5q.2 0 .2.2z"/></g></g><g filter="url(#i)"><g clip-path="url(#j)"><rect width="216" height="200" x="1019" y="112" fill="#fff" rx="12"/><path stroke="#000" stroke-linecap="round" stroke-linejoin="round" d="M1042.5 134h-2a1 1 0 0 0-1 1v2q0 .4.3.7l.6.3h2.1q.5 0 .8-.3l.2-.7v-2l-.2-.6-.6-.4zm6 0h-2a1 1 0 0 0-1 1v2q0 .4.3.7l.6.3h2.1q.5 0 .8-.3l.2-.7v-2l-.2-.6-.6-.4zm-6 6h-2a1 1 0 0 0-1 1v2q0 .4.3.7l.6.3h2.1q.5 0 .8-.3l.2-.7v-2l-.2-.6-.6-.4zm6 0h-2a1 1 0 0 0-1 1v2q0 .4.3.7l.6.3h2.1q.5 0 .8-.3l.2-.7v-2l-.2-.6-.6-.4z"/><path fill="#051129" d="M1064.6 139.3h3.3l-1.7-5.1zm6.7 4.7h-1.6l-.3-.1-1-3h-4.4l-1 3-.1.1h-1.7l-.1-.1 3.8-10.9.3-.2h2.2l.3.2 3.7 10.9zm8.1-2.4c0 1.7-1.6 2.6-3.6 2.6-2.2 0-3.8-1-3.9-2.8q0-.2.2-.2h1.5l.2.2q.1 1.5 2 1.5 1.7 0 1.8-1.2c0-1.8-5.5-.2-5.5-3.5q.1-2.6 3.4-2.6c2 0 3.5.8 3.6 2.5l-.1.2h-1.5q-.2 0-.2-.2-.1-1.2-1.8-1.2-1.5 0-1.6 1.1c0 1.8 5.5.1 5.5 3.6m8.5 0c0 1.7-1.5 2.6-3.6 2.6-2.2 0-3.8-1-3.8-2.8l.1-.2h1.5l.2.2q.2 1.5 2 1.5 1.7 0 1.8-1.2c0-1.8-5.5-.2-5.5-3.5q.2-2.6 3.5-2.6t3.6 2.5l-.2.2h-1.5l-.2-.2q0-1.2-1.8-1.2-1.5 0-1.5 1.1c0 1.8 5.5.1 5.5 3.6m7.3-.4h1.5l.2.2c-.3 1.6-1.6 2.8-3.8 2.8q-4-.2-4.1-4.3c0-2.6 1.5-4.3 4-4.3q4 .1 4 4.5l-.1.2h-6q.1 2.6 2.2 2.6 1.6 0 1.9-1.5zm-.2-2.2c0-1-.7-2-2-2q-1.7 0-2 2zm7.7 3.7v1l-.2.3-1.3.2c-1.3 0-2.5-.7-2.5-2.5v-4.5h-.9l-.1-.1V136l.1-.2h1v-2.1h1.7l.2.2v1.9h1.8l.2.2v1q0 .3-.2.2h-1.8v4.4q0 1.2 1 1.1zm8.3-1.1c0 1.7-1.5 2.6-3.6 2.6-2.2 0-3.8-1-3.9-2.8l.2-.2h1.5l.2.2q.2 1.5 2 1.5 1.7 0 1.8-1.2c0-1.8-5.5-.2-5.5-3.5q.2-2.6 3.5-2.6t3.5 2.5l-.1.2h-1.5l-.2-.2q0-1.2-1.8-1.2-1.5 0-1.5 1.1c0 1.8 5.5.1 5.5 3.6"/><rect width="89" height="110" x="1034.5" y="188.5" stroke="#051129" stroke-opacity=".1" rx="9.5"/><path fill="#051129" d="M1091.8 286h-4l-.2-.2v-19.9a13 13 0 0 1-5 2.9q-.3 0-.3-.2v-3q0-.3.3-.4 3.3-1.3 5.2-4.1 0-.3.4-.3h3.6q.3 0 .3.3v24.6q0 .3-.3.3m21.8-9.3v2.9q0 .2-.3.2h-2.4v6l-.3.3h-3.8l-.3-.3v-6h-11.2l-.3-.2v-3.4l.2-.5 9.6-14.6q.1-.3.4-.3h5.4q.3 0 .3.3v15.3h2.4q.3 0 .3.3m-7.1-.3v-7.5l.1-4.7-8 12.2z"/><path stroke="#051129" stroke-linecap="round" stroke-linejoin="round" d="M1062 231.3a14.3 14.3 0 1 0 0-28.6 14.3 14.3 0 0 0 0 28.6" clip-rule="evenodd"/><path fill="#051129" d="M1062 225.4a8.3 8.3 0 1 0 0-16.7 8.3 8.3 0 0 0 0 16.7"/><path stroke="#051129" stroke-linecap="round" stroke-linejoin="round" d="M1043 217h4.7m28.6 0h4.7m-19-19v4.8m0 28.5v4.8"/><rect width="89" height="110" x="1130.5" y="188.5" stroke="#051129" stroke-opacity=".1" rx="9.5"/><path fill="#051129" d="M1187.2 286H1171l-.2-.2v-3.2c0-10 12.7-8.8 12.7-14.6 0-2.6-1.4-4.3-4.2-4.2q-4.2 0-4.5 5.3 0 .2-.3.3h-3.4l-.3-.3q.1-8.6 8.5-8.7c5.4 0 8.2 2.8 8.3 7.5 0 9.1-12.7 8.3-12.7 14v.7h12.3q.2 0 .3.3v2.9zm21.5-12.5c0 8.4-3.7 13-9.5 13s-9.5-4.7-9.5-13c0-8.6 3.7-13.2 9.5-13.2s9.5 4.5 9.5 13.2m-14.5 0q.2 9.6 5 9.4 4.9.1 5-9.4-.1-9.7-5-9.6-4.9-.1-5 9.6"/><path fill="#051129" fill-rule="evenodd" stroke="#051129" stroke-linecap="round" stroke-linejoin="round" d="M1143.1 227.3v-7.1a2.4 2.4 0 0 1 2.4-2.4q1 0 1.7.7t.7 1.7v7.1q0 1-.7 1.7a2.4 2.4 0 0 1-4.1-1.7m9.5 0V213q0-1 .7-1.6a2.4 2.4 0 0 1 3.4 0q.7.7.7 1.6v14.3a2.4 2.4 0 0 1-2.4 2.4q-1 0-1.7-.7t-.7-1.7" clip-rule="evenodd"/><path stroke="#051129" stroke-linecap="round" stroke-linejoin="round" d="M1162.2 227.3V206a2.4 2.4 0 0 1 2.3-2.4q1 0 1.7.7t.7 1.7v21.4q0 1-.7 1.7a2.4 2.4 0 0 1-3.4 0q-.6-.6-.6-1.7" clip-rule="evenodd"/></g></g><defs><clipPath id="b"><rect width="216" height="200" x="35" y="112" fill="#fff" rx="12"/></clipPath><clipPath id="d"><rect width="216" height="275" x="281" y="62" fill="#fff" rx="12"/></clipPath><clipPath id="f"><rect width="216" height="325" x="527" y="12" fill="#fff" rx="12"/></clipPath><clipPath id="h"><rect width="216" height="275" x="773" y="62" fill="#fff" rx="12"/></clipPath><clipPath id="j"><rect width="216" height="200" x="1019" y="112" fill="#fff" rx="12"/></clipPath><filter id="a" width="284.7" height="268.7" x=".7" y="100.6" color-interpolation-filters="sRGB" filterUnits="userSpaceOnUse"><feFlood flood-opacity="0" result="BackgroundImageFix"/><feColorMatrix in="SourceAlpha" result="hardAlpha" values="0 0 0 0 0 0 0 0 0 0 0 0 0 0 0 0 0 0 127 0"/><feOffset dy="22.9"/><feGaussianBlur stdDeviation="17.2"/><feComposite in2="hardAlpha" operator="out"/><feColorMatrix values="0 0 0 0 0.0196078 0 0 0 0 0.0666667 0 0 0 0 0.160784 0 0 0 0.15 0"/><feBlend in2="BackgroundImageFix" mode="multiply" result="effect1_dropShadow_9287_1465"/><feBlend in="SourceGraphic" in2="effect1_dropShadow_9287_1465" result="shape"/></filter><filter id="c" width="284.7" height="343.7" x="246.7" y="50.6" color-interpolation-filters="sRGB" filterUnits="userSpaceOnUse"><feFlood flood-opacity="0" result="BackgroundImageFix"/><feColorMatrix in="SourceAlpha" result="hardAlpha" values="0 0 0 0 0 0 0 0 0 0 0 0 0 0 0 0 0 0 127 0"/><feOffset dy="22.9"/><feGaussianBlur stdDeviation="17.2"/><feComposite in2="hardAlpha" operator="out"/><feColorMatrix values="0 0 0 0 0.0196078 0 0 0 0 0.0666667 0 0 0 0 0.160784 0 0 0 0.15 0"/><feBlend in2="BackgroundImageFix" mode="multiply" result="effect1_dropShadow_9287_1465"/><feBlend in="SourceGraphic" in2="effect1_dropShadow_9287_1465" result="shape"/></filter><filter id="e" width="284.7" height="393.7" x="492.7" y=".6" color-interpolation-filters="sRGB" filterUnits="userSpaceOnUse"><feFlood flood-opacity="0" result="BackgroundImageFix"/><feColorMatrix in="SourceAlpha" result="hardAlpha" values="0 0 0 0 0 0 0 0 0 0 0 0 0 0 0 0 0 0 127 0"/><feOffset dy="22.9"/><feGaussianBlur stdDeviation="17.2"/><feComposite in2="hardAlpha" operator="out"/><feColorMatrix values="0 0 0 0 0.0196078 0 0 0 0 0.0666667 0 0 0 0 0.160784 0 0 0 0.15 0"/><feBlend in2="BackgroundImageFix" mode="multiply" result="effect1_dropShadow_9287_1465"/><feBlend in="SourceGraphic" in2="effect1_dropShadow_9287_1465" result="shape"/></filter><filter id="g" width="284.7" height="343.7" x="738.7" y="50.6" color-interpolation-filters="sRGB" filterUnits="userSpaceOnUse"><feFlood flood-opacity="0" result="BackgroundImageFix"/><feColorMatrix in="SourceAlpha" result="hardAlpha" values="0 0 0 0 0 0 0 0 0 0 0 0 0 0 0 0 0 0 127 0"/><feOffset dy="22.9"/><feGaussianBlur stdDeviation="17.2"/><feComposite in2="hardAlpha" operator="out"/><feColorMatrix values="0 0 0 0 0.0196078 0 0 0 0 0.0666667 0 0 0 0 0.160784 0 0 0 0.15 0"/><feBlend in2="BackgroundImageFix" mode="multiply" result="effect1_dropShadow_9287_1465"/><feBlend in="SourceGraphic" in2="effect1_dropShadow_9287_1465" result="shape"/></filter><filter id="i" width="284.7" height="268.7" x="984.7" y="100.6" color-interpolation-filters="sRGB" filterUnits="userSpaceOnUse"><feFlood flood-opacity="0" result="BackgroundImageFix"/><feColorMatrix in="SourceAlpha" result="hardAlpha" values="0 0 0 0 0 0 0 0 0 0 0 0 0 0 0 0 0 0 127 0"/><feOffset dy="22.9"/><feGaussianBlur stdDeviation="17.2"/><feComposite in2="hardAlpha" operator="out"/><feColorMatrix values="0 0 0 0 0.0196078 0 0 0 0 0.0666667 0 0 0 0 0.160784 0 0 0 0.15 0"/><feBlend in2="BackgroundImageFix" mode="multiply" result="effect1_dropShadow_9287_1465"/><feBlend in="SourceGraphic" in2="effect1_dropShadow_9287_1465" result="shape"/></filter></defs></svg>