<svg width="1551" height="304" viewBox="0 0 1551 304" fill="none" xmlns="http://www.w3.org/2000/svg">
<path opacity="0.25" d="M1465.87 -163.9L1527.72 -56.222M1450.18 -56.2214L1512.23 -163.787M1551 -94.7364H1426.9M721.286 -163.9L783.14 -56.2221M705.6 -56.2215L767.65 -163.787M806.421 -94.7365H682.322M1465.87 51.3797L1527.72 159.058M1450.18 159.058L1512.23 51.4931M1551 120.543H1426.9M721.286 51.3797L783.14 159.058M705.6 159.058L767.65 51.4931M806.421 120.543H682.322M1465.87 266.657L1527.72 374.335M1450.18 374.336L1512.23 266.77M1551 335.821H1426.9M721.286 266.657L783.14 374.335M705.6 374.336L767.65 266.77M806.421 335.821H682.322M1341.78 -163.9L1403.63 -56.2221M1326.1 -56.2215L1388.14 -163.787M1426.91 -94.7365H1302.81M597.198 -163.9L659.052 -56.2221M581.512 -56.2215L643.562 -163.787M682.331 -94.7365H558.231M1341.78 51.3797L1403.63 159.058M1326.1 159.058L1388.14 51.4931M1426.91 120.543H1302.81M597.198 51.3797L659.052 159.058M581.512 159.058L643.562 51.4931M682.331 120.543H558.231M1341.78 266.657L1403.63 374.335M1326.1 374.336L1388.14 266.77M1426.91 335.821H1302.81M597.198 266.657L659.052 374.335M581.512 374.336L643.562 266.77M682.331 335.821H558.231M1217.67 -163.9L1279.53 -56.2221M1201.99 -56.2215L1264.04 -163.787M1302.81 -94.7365H1178.71M473.094 -163.9L534.948 -56.2221M457.408 -56.2215L519.458 -163.787M558.228 -94.7365H434.129M1217.67 51.3797L1279.53 159.058M1201.99 159.058L1264.04 51.4931M1302.81 120.543H1178.71M473.104 51.3797L534.958 159.058M457.418 159.058L519.468 51.4931M558.24 120.543H434.141M1217.67 266.657L1279.53 374.335M1201.99 374.336L1264.04 266.77M1302.81 335.821H1178.71M473.104 266.657L534.958 374.335M457.418 374.336L519.468 266.77M558.24 335.821H434.141M1093.57 -163.9L1155.42 -56.2221M1077.88 -56.2215L1139.93 -163.787M1178.7 -94.7365H1054.61M349.006 -163.9L410.86 -56.2221M333.32 -56.2215L395.37 -163.787M434.138 -94.7365H310.039M1093.57 51.3797L1155.42 159.058M1077.88 159.058L1139.93 51.4931M1178.7 120.543H1054.61M349.006 51.3797L410.86 159.058M333.32 159.058L395.37 51.4931M434.138 120.543H310.039M1093.57 266.657L1155.42 374.335M1077.88 374.336L1139.93 266.77M1178.7 335.821H1054.61M349.006 266.657L410.86 374.335M333.32 374.336L395.37 266.77M434.138 335.821H310.039M969.48 -163.9L1031.33 -56.2221M953.795 -56.2215L1015.84 -163.787M1054.61 -94.7365H930.515M224.899 -163.9L286.753 -56.2221M209.214 -56.2215L271.264 -163.787M310.035 -94.7365H185.936M969.48 51.3797L1031.33 159.058M953.795 159.058L1015.84 51.4931M1054.61 120.543H930.515M224.899 51.3797L286.753 159.058M209.214 159.058L271.264 51.4931M310.035 120.543H185.936M969.48 266.657L1031.33 374.335M953.795 374.336L1015.84 266.77M1054.61 335.821H930.515M224.899 266.657L286.753 374.335M209.214 374.336L271.264 266.77M310.035 335.821H185.936M845.392 -163.9L907.246 -56.2221M829.707 -56.2215L891.756 -163.787M930.524 -94.7365H806.424M100.811 -163.9L162.665 -56.222M85.1258 -56.2214L147.175 -163.787M185.945 -94.7364H61.8454M845.392 51.3797L907.246 159.058M829.707 159.058L891.756 51.4931M930.524 120.543H806.424M100.811 51.3797L162.665 159.058M85.1259 159.058L147.175 51.4931M185.945 120.543H61.8455M845.392 266.657L907.246 374.335M829.707 374.336L891.756 266.77M930.524 335.821H806.424M100.811 266.657L162.665 374.335M85.1258 374.336L147.175 266.77M185.945 335.821H61.8454M1404.01 -271.5L1465.86 -163.822M1388.32 -163.821L1450.37 -271.387M1489.14 -202.336H1365.04M659.445 -271.5L721.299 -163.822M643.759 -163.821L705.809 -271.387M744.576 -202.336H620.476M1404.01 -56.2233L1465.86 51.4548M1388.32 51.4554L1450.37 -56.11M1489.14 12.9411H1365.04M659.445 -56.2233L721.299 51.4548M643.759 51.4554L705.809 -56.11M744.576 12.9411H620.476M1404.01 159.059L1465.86 266.737M1388.32 266.737L1450.37 159.172M1489.14 228.222H1365.04M659.445 159.059L721.299 266.737M643.759 266.737L705.809 159.172M744.576 228.222H620.476M1489.14 443.5H1365.04M744.576 443.5H620.476M1279.92 -271.5L1341.77 -163.822M1264.23 -163.821L1326.28 -271.387M1365.05 -202.336H1240.95M535.339 -271.5L597.193 -163.822M519.653 -163.821L581.703 -271.387M620.473 -202.336H496.374M1279.92 -56.2233L1341.77 51.4548M1264.23 51.4554L1326.28 -56.11M1365.05 12.9411H1240.95M535.339 -56.2233L597.193 51.4548M519.653 51.4554L581.703 -56.11M620.473 12.9411H496.374M1279.92 159.059L1341.77 266.737M1264.23 266.737L1326.28 159.172M1365.05 228.222H1240.95M535.339 159.059L597.193 266.737M519.653 266.737L581.703 159.172M620.473 228.222H496.374M1365.05 443.5H1240.95M620.473 443.5H496.374M1155.82 -271.5L1217.68 -163.822M1140.14 -163.821L1202.19 -271.387M1240.95 -202.336H1116.85M411.25 -271.5L473.105 -163.822M395.565 -163.821L457.615 -271.387M496.383 -202.336H372.283M1155.82 -56.2233L1217.68 51.4548M1140.14 51.4554L1202.19 -56.11M1240.95 12.9411H1116.85M411.25 -56.2233L473.105 51.4548M395.565 51.4554L457.615 -56.11M496.383 12.9411H372.283M1155.82 159.059L1217.68 266.737M1140.14 266.737L1202.19 159.172M1240.95 228.222H1116.85M411.25 159.059L473.105 266.737M395.565 266.737L457.615 159.172M496.383 228.222H372.283M1240.95 443.5H1116.85M496.383 443.5H372.283M1031.72 -271.5L1093.58 -163.822M1016.04 -163.821L1078.09 -271.387M1116.86 -202.336H992.76M287.144 -271.5L348.998 -163.822M271.459 -163.821L333.509 -271.387M372.28 -202.336H248.181M1031.72 -56.2233L1093.58 51.4548M1016.04 51.4554L1078.09 -56.11M1116.86 12.9411H992.76M287.144 -56.2233L348.998 51.4548M271.459 51.4554L333.509 -56.11M372.28 12.9411H248.181M1031.72 159.059L1093.58 266.737M1016.04 266.737L1078.09 159.172M1116.86 228.222H992.76M287.144 159.059L348.998 266.737M271.459 266.737L333.509 159.172M372.28 228.222H248.181M1116.86 443.5H992.76M372.28 443.5H248.181M907.639 -271.5L969.493 -163.822M891.954 -163.821L954.003 -271.387M992.769 -202.336H868.669M163.056 -271.5L224.91 -163.822M147.371 -163.821L209.42 -271.387M248.19 -202.336H124.09M907.639 -56.2233L969.493 51.4548M891.954 51.4554L954.003 -56.11M992.769 12.9411H868.669M163.056 -56.2233L224.91 51.4548M147.371 51.4554L209.421 -56.11M248.19 12.9411H124.091M907.639 159.059L969.493 266.737M891.954 266.737L954.003 159.172M992.769 228.222H868.669M163.056 159.059L224.91 266.737M147.371 266.737L209.42 159.172M248.19 228.222H124.09M992.769 443.5H868.669M248.19 443.5H124.091M783.539 -271.5L845.393 -163.822M767.854 -163.821L829.903 -271.387M868.666 -202.336H744.567M38.9702 -271.5L100.824 -163.822M23.2848 -163.821L85.3344 -271.387M124.099 -202.336H0M783.539 -56.2233L845.393 51.4548M767.854 51.4554L829.903 -56.11M868.666 12.9411H744.567M38.9702 -56.2233L100.824 51.4548M23.2848 51.4554L85.3344 -56.11M124.099 12.9411H0M783.539 159.059L845.393 266.737M767.854 266.737L829.903 159.172M868.666 228.222H744.567M38.9702 159.059L100.824 266.737M23.2848 266.737L85.3344 159.172M124.099 228.222H0M868.666 443.5H744.567M124.099 443.5H0" stroke="url(#paint0_radial_9520_9257)"/>
<defs>
<radialGradient id="paint0_radial_9520_9257" cx="0" cy="0" r="1" gradientUnits="userSpaceOnUse" gradientTransform="translate(775.5 503) rotate(-90) scale(631.538 10020.8)">
<stop stop-color="#00878D"/>
<stop offset="1" stop-color="#00878D" stop-opacity="0"/>
</radialGradient>
</defs>
</svg>
